<?xml version="1.0" encoding="utf-8"?>
<!-- Generator: Adobe Illustrator 15.0.0, SVG Export Plug-In . SVG Version: 6.00 Build 0)  -->
<!DOCTYPE svg PUBLIC "-//W3C//DTD SVG 1.1//EN" "http://www.w3.org/Graphics/SVG/1.1/DTD/svg11.dtd">
<svg version="1.1" id="Layer_1" xmlns="http://www.w3.org/2000/svg" xmlns:xlink="http://www.w3.org/1999/xlink" x="0px" y="0px"
     width="14px" height="14px" viewBox="0 0 14 14" enable-background="new 0 0 14 14" xml:space="preserve">
<path fill="#FFFFFF" d="M14,2.658c-0.516,0.229-1.068,0.383-1.649,0.452c0.593-0.355,1.048-0.918,1.263-1.589
    c-0.555,0.329-1.17,0.568-1.824,0.697c-0.523-0.559-1.27-0.907-2.096-0.907c-1.587,0-2.873,1.286-2.873,2.872
    c0,0.225,0.025,0.444,0.075,0.654c-2.387-0.12-4.504-1.263-5.92-3.001C0.728,2.261,0.586,2.755,0.586,3.281
    c0,0.996,0.507,1.875,1.278,2.391C1.393,5.657,0.95,5.527,0.562,5.312c0,0.012,0,0.024,0,0.036c0,1.391,0.99,2.553,2.304,2.816
    C2.625,8.23,2.372,8.266,2.11,8.266c-0.186,0-0.365-0.019-0.541-0.052c0.365,1.141,1.426,1.972,2.683,1.994
    c-0.983,0.771-2.222,1.23-3.567,1.23c-0.232,0-0.46-0.014-0.685-0.041c1.271,0.815,2.781,1.291,4.403,1.291
    c5.283,0,8.172-4.377,8.172-8.172c0-0.125-0.003-0.248-0.009-0.372C13.128,3.74,13.615,3.234,14,2.658z"/>
</svg>
